<?xml version="1.0" encoding="UTF-8"?>
<svg xmlns="http://www.w3.org/2000/svg" width="32" height="32" viewBox="0 0 32 32" role="img" aria-label="Tomato">
  <path
    d="M15.95 8.55c6.58 0 11.1 4.2 11.1 10.22 0 6.48-4.34 10.68-11.1 10.68-6.74 0-11-4.2-11-10.68 0-6.02 4.44-10.22 11-10.22z"
    fill="#de2f2f"
    stroke="#9b1d1d"
    stroke-width="1.3"
  />
  <path
    d="M9.1 18.2c0-4.66 3.38-7.72 8.48-8.18-0.54-0.06-1.08-0.08-1.63-0.08-5.88 0-9.68 3.62-9.68 8.84 0 5.6 3.66 9.28 9.68 9.28 0.7 0 1.36-0.05 2-0.14-5.44-0.5-8.85-4.14-8.85-9.72z"
    fill="#ef5450"
    opacity="0.74"
  />
  <path
    d="M12.95 4.02l3.06 3.24 3.08-3.24-0.7 4.2 4.06-1.42-2.42 3.36 4.16 1.02-4.36 1.14 1.52 3.96-3.78-2.46-1.56 4-1.54-4-3.8 2.46 1.54-3.96-4.38-1.14 4.16-1.02-2.42-3.36 4.06 1.42-0.68-4.2z"
    fill="#2f8f49"
    stroke="#1f6f37"
    stroke-width="0.7"
    stroke-linejoin="round"
  />
  <ellipse cx="11.4" cy="16.7" rx="2.1" ry="3.2" fill="#ff7a73" opacity="0.58" transform="rotate(24 11.4 16.7)" />
</svg>
