<svg xmlns="http://www.w3.org/2000/svg" viewBox="0 0 160 36" fill="none">
  <path d="M3 18c10.5 0 12.1-9.6 20.6-9.6 9.4 0 8.7 12.8 18.1 12.8 5.7 0 8.8-4 11.2-7.5 2.8-4 5.7-8 11.3-8 6.8 0 8.9 6.3 10.9 11.6 1.8 4.8 3.4 8.9 8 8.9 4.8 0 6.2-4.9 8.1-9.6 2.2-5.4 4.7-10.9 11.6-10.9 5.9 0 8.9 3.8 11.8 7.6 2.7 3.5 5.3 6.8 10.6 6.8 8.5 0 10.7-8.1 20.9-8.1" stroke="#8b5b24" stroke-width="2.4" stroke-linecap="round"/>
  <path d="M42 18c4.8 0 6.8-5.7 10.6-5.7 3.6 0 4.4 5.7 8.2 5.7 3.4 0 4.9-4.7 8-4.7 3.1 0 4.3 4.7 7.5 4.7 3.1 0 4.4-4.9 7.6-4.9 3.4 0 4.7 5.2 8.1 5.2 3.4 0 5.4-5.4 8.9-5.4 3.8 0 5.1 5.8 9.2 5.8 4.5 0 6.9-6.6 11.3-6.6" stroke="#cda56e" stroke-width="1.35" stroke-linecap="round" opacity=".92"/>
  <path d="M74 18c0-3.3 2.7-6 6-6s6 2.7 6 6-2.7 6-6 6-6-2.7-6-6Z" fill="#8b5b24" fill-opacity=".16" stroke="#8b5b24" stroke-width="1.6"/>
  <path d="M80 8.5v19" stroke="#8b5b24" stroke-width="1.25" stroke-linecap="round" opacity=".75"/>
</svg>
