<?xml version="1.0" encoding="UTF-8"?>
<svg xmlns="http://www.w3.org/2000/svg" width="32" height="32" viewBox="0 0 32 32" role="img" aria-label="Magic wand with gold star">
  <path d="M6.2 26.2L22.8 9.6" fill="none" stroke="#1f2937" stroke-width="3.2" stroke-linecap="round" />
  <!-- <path d="M8.1 27.9L24.7 11.3" fill="none" stroke="#f8fafc" stroke-width="1.1" stroke-linecap="round" opacity="0.88" /> -->
  <!-- <path d="M19.1 9.3l3.7-3.7 3.6 3.6-3.7 3.7-3.6-3.6z" fill="#7c3aed" stroke="#4c1d95" stroke-width="1" /> -->

  <!-- main star -->
  <path
    d="M23.2 3.9l1.35 2.78 3.06.42-2.22 2.14 0.54 3.02-2.73-1.47-2.72 1.47 0.54-3.02-2.24-2.14 3.08-0.42 1.34-2.78z"
    fill="#ffd95c"
    stroke="#b77900"
    stroke-width="0.8"
    stroke-linejoin="round"
  />
  <path d="M18.1 3.5h1.9M19.05 2.55v1.9" fill="none" stroke="#f8c43a" stroke-width="0.55" stroke-linecap="round" />
  <path d="M27.7 3.5h1.7M28.55 2.65v1.7" fill="none" stroke="#ffd95c" stroke-width="0.55" stroke-linecap="round" />
  <path d="M28.2 12.9h1.8M29.1 12v1.8" fill="none" stroke="#f8c43a" stroke-width="0.55" stroke-linecap="round" />

  <!-- left star -->
  <path d="M3.5 7.1l1 1.98 2.18 0.3-1.58 1.54 0.38 2.16-1.98-1.02-1.96 1.02 0.38-2.16L0.34 9.38l2.18-0.3 0.98-1.98z" fill="#f8c43a" opacity="0.8" />

  <!-- smaller star left -->
  <path d="M11.4 2.9l0.43 1.16 1.24 0.05-0.97 0.76 0.34 1.2-1.04-0.67-1.04 0.67 0.34-1.2-0.97-0.76 1.24-0.05 0.43-1.16z" fill="#f8c43a" stroke="#b77900" stroke-width="0.35" stroke-linejoin="round" />

  <!-- smaller star right -->
  <path d="M28.2 16.8l0.4 1.08 1.16 0.05-0.91 0.71 0.32 1.12-0.97-0.63-0.97 0.63 0.32-1.12-0.91-0.71 1.16-0.05 0.4-1.08z" fill="#f8c43a" stroke="#b77900" stroke-width="0.35" stroke-linejoin="round" />
</svg>
