<?xml version="1.0" encoding="UTF-8"?>
<svg xmlns="http://www.w3.org/2000/svg" width="32" height="32" viewBox="0 0 32 32" role="img" aria-label="Magic wand with tomato cluster">
  <path d="M6.2 26.2L22.8 9.6" fill="none" stroke="#1f2937" stroke-width="3.2" stroke-linecap="round" />
  <!-- <path d="M8.1 27.9L24.7 11.3" fill="none" stroke="#f8fafc" stroke-width="1.1" stroke-linecap="round" opacity="0.88" /> -->
  <!-- <path d="M19.1 9.3l3.7-3.7 3.6 3.6-3.7 3.7-3.6-3.6z" fill="#2563eb" stroke="#1e3a8a" stroke-width="1" /> -->

  <g stroke-width="0.55" stroke-linejoin="round">
    <!-- main tomato body -->
    <circle cx="24.6" cy="7.5" r="4.2" fill="#de2f2f" stroke="#9b1d1d" />
    <!-- main tomato greens -->
    <path d="M23.55 2.6l1.15 1.2 1.16-1.2-0.28 1.58 1.52-0.52-0.9 1.26 1.56 0.38-1.64 0.42 0.58 1.48-1.42-0.92-0.58 1.5-0.58-1.5-1.42 0.92 0.58-1.48-1.64-0.42 1.56-0.38-0.9-1.26 1.52 0.52-0.26-1.58z" fill="#2f8f49" stroke="#1f6f37" />

    <!-- left tomato body -->
    <circle cx="16.3" cy="5.6" r="2.3" fill="#ef4444" stroke="#9b1d1d" />
    <path d="M15.73 2.92l0.63 0.66 0.64-0.66-0.15 0.87 0.83-0.29-0.49 0.69 0.85 0.21-0.9 0.23 0.32 0.81-0.78-0.5-0.32 0.82-0.32-0.82-0.78 0.5 0.32-0.81-0.9-0.23 0.85-0.21-0.49-0.69 0.83 0.29-0.14-0.87z" fill="#2f8f49" stroke="#1f6f37" />

    <!-- right tomato body -->
    <circle cx="25.2" cy="15.1" r="2.5" fill="#ef4444" stroke="#9b1d1d" />
    <path d="M24.58 12.26l0.68 0.71 0.69-0.71-0.17 0.94 0.9-0.31-0.53 0.74 0.92 0.22-0.97 0.25 0.34 0.88-0.84-0.55-0.34 0.89-0.34-0.89-0.84 0.55 0.34-0.88-0.97-0.25 0.92-0.22-0.53-0.74 0.9 0.31-0.16-0.94z" fill="#2f8f49" stroke="#1f6f37" />

    <!-- tiny left tomato body -->
    <circle cx="14.8" cy="12.8" r="1.4" fill="#f87171" stroke="#9b1d1d" />
    <path d="M14.45 11.21l0.38 0.4 0.39-0.4-0.09 0.53 0.5-0.17-0.3 0.42 0.52 0.13-0.55 0.14 0.19 0.49-0.48-0.3-0.19 0.49-0.19-0.49-0.48 0.3 0.19-0.49-0.55-0.14 0.52-0.13-0.3-0.42 0.5 0.17-0.08-0.53z" fill="#2f8f49" stroke="#1f6f37" />
  </g>
  <!-- <circle cx="3.5" cy="7.4" r="1.2" fill="#93c5fd" />
  <circle cx="29" cy="21" r="1" fill="#93c5fd" /> -->
</svg>
